<svg t="1571277161682" class="icon" viewBox="0 0 1024 1024" version="1.1" xmlns="http://www.w3.org/2000/svg" p-id="5777" width="200" height="200"><path d="M895.89248 160l0.10752 0.10752v575.77984l-0.10752 0.10752H128.10752l-0.10752-0.1024V160.10752l0.10752-0.10752h767.78496m0.10752-64H128c-35.3024 0.10752-63.89248 28.6976-64 64v576c0.10752 35.3024 28.6976 63.89248 64 64h768c35.3024-0.10752 63.89248-28.6976 64-64V160c-0.10752-35.3024-28.6976-63.89248-64-64z m-64 768h-640v64h640v-64z" p-id="5778" fill="#d4237a"></path><path d="M576 736h-128v128h128v-128zM128 672h768v64H128v-64zM512 256c88.36608 0 160 71.63904 159.99488 160.00512-0.00512 88.36608-71.64416 159.99488-160.00512 159.99488-88.36608 0-160-71.63904-159.99488-160.00512a159.99488 159.99488 0 0 1 46.86336-113.13664A159.0016 159.0016 0 0 1 512 256m0-64c-123.70944 0-224 100.29056-224 224S388.29056 640 512 640s224-100.29056 224-224S635.70944 192 512 192z" p-id="5779" fill="#d4237a"></path><path d="M480 448h64V288h-64V448z m0 96h64v-64h-64v64z" p-id="5780" fill="#d4237a"></path></svg>