<svg class="icon" viewBox="0 0 1024 1024" xmlns="http://www.w3.org/2000/svg" width="200" height="200"><path d="M895.892 160l.108.108v575.78l-.108.107H128.108l-.108-.103V160.108l.108-.108h767.784M896 96H128c-35.302.108-63.892 28.698-64 64v576c.108 35.302 28.698 63.892 64 64h768c35.302-.108 63.892-28.698 64-64V160c-.108-35.302-28.698-63.892-64-64zm-64 768H192v64h640v-64z" fill="#d4237a"/><path d="M576 736H448v128h128V736zm-448-64h768v64H128v-64zm384-416c88.366 0 160 71.639 159.995 160.005C671.99 504.371 600.35 576 511.99 576c-88.366 0-160-71.639-159.995-160.005a159.995 159.995 0 0146.863-113.137A159.002 159.002 0 01512 256m0-64c-123.71 0-224 100.29-224 224s100.29 224 224 224 224-100.29 224-224-100.29-224-224-224z" fill="#d4237a"/><path d="M480 448h64V288h-64v160zm0 96h64v-64h-64v64z" fill="#d4237a"/></svg>