<svg class="icon" viewBox="0 0 1024 1024" xmlns="http://www.w3.org/2000/svg" width="128" height="128"><path d="M512 1024C229.376 1024 0 794.624 0 512S229.376 0 512 0s512 229.376 512 512-229.376 512-512 512zm0-983.04C251.904 40.96 40.96 251.904 40.96 512S251.904 983.04 512 983.04 983.04 772.096 983.04 512 772.096 40.96 512 40.96zm276.48 655.36c0 16.384-14.336 30.72-28.672 30.72H284.672c-16.384 0-28.672-14.336-28.672-30.72V587.776c0-16.384 14.336-30.72 28.672-30.72h102.4C409.6 614.4 460.8 651.264 522.24 651.264c59.392 0 112.64-36.864 135.168-94.208h102.4c16.384 0 28.672 14.336 28.672 30.72V696.32zM360.448 342.016c0-24.576 18.432-43.008 43.008-43.008h239.616c22.528 0 43.008 20.48 43.008 43.008v184.32h-51.2c-12.288 53.248-57.344 94.208-112.64 94.208s-100.352-38.912-112.64-94.208h-49.152v-184.32zm360.448 186.368V335.872c0-43.008-32.768-77.824-73.728-77.824H397.312c-40.96 0-73.728 34.816-73.728 77.824v192.512H276.48c-34.816 0-61.44 28.672-61.44 63.488v110.592c0 34.816 26.624 63.488 61.44 63.488H768c34.816 0 61.44-28.672 61.44-63.488V591.872c0-34.816-26.624-63.488-61.44-63.488h-47.104zm-131.072-20.48c-6.144 6.144-16.384 6.144-22.528 0L456.704 397.312c-6.144-6.144-6.144-16.384 0-22.528 6.144-6.144 16.384-6.144 22.528 0l110.592 110.592c6.144 6.144 6.144 16.384 0 22.528zm-135.168 0c-6.144-6.144-6.144-16.384 0-22.528l110.592-110.592c6.144-6.144 16.384-6.144 22.528 0 6.144 6.144 6.144 16.384 0 22.528L477.184 507.904c-6.144 6.144-16.384 6.144-22.528 0z"/></svg>