<svg class="icon" viewBox="0 0 1024 1024" xmlns="http://www.w3.org/2000/svg" width="200" height="200"><path d="M1008.42 97.573c-12.946-17.92-31.597-24.21-52.516-24.21H78.774c-7.68 0-15.505-.732-22.893.292-8.046 1.097-17.188 2.048-23.698 6.583C13.53 93.623.073 110.373.073 137.143c.366 229.595.22 459.19.366 688.86a71.68 71.68 0 004.754 23.186c9.728 26.843 28.672 39.57 55.516 39.57h308.37c12.507 0 15.58 3.218 15.726 16.75v36.352c0 14.555-1.244 16.237-15.36 16.31H268.288c-9.874 0-13.824 4.17-13.824 14.41v36.352c-.22 14.994-.073 15.067 13.678 15.067l484.205-.073c3.95 0 7.973-.366 13.093-.658V975.14c.146-15.068-1.243-16.75-15.726-16.75-33.06 0-66.194-.073-99.4.073-7.608 0-12.8-1.39-12.289-11.995.805-14.336.146-28.819.22-43.228.073-14.043.438-14.409 13.385-14.409h157.33c53.687 0 107.447.366 161.06-.731 8.705-.147 17.774-6.071 25.82-10.68 8.777-4.9 12.434-15.725 18.725-22.674 8.923-9.874 8.923-19.748 8.923-30.939 0-228.425-.22-456.777.585-685.13.073-17.553-7.022-29.33-15.652-41.105zM739.62 613.96l-79.579 83.09-147.968-154.404-147.968 154.478-79.58-83.164 147.896-154.478-147.895-154.55 79.58-83.164 147.967 154.478 147.968-154.478 79.58 83.237L591.726 459.41 739.62 613.961z" fill="#d4237a"/></svg>