<svg t="1571277059730" class="icon" viewBox="0 0 1024 1024" version="1.1" xmlns="http://www.w3.org/2000/svg" p-id="3393" width="200" height="200"><path d="M1008.420571 97.572571c-12.946286-17.92-31.597714-24.210286-52.516571-24.210285H78.774857c-7.68 0-15.506286-0.731429-22.893714 0.292571-8.045714 1.097143-17.188571 2.048-23.698286 6.582857C13.531429 93.622857 0.073143 110.372571 0.073143 137.142857c0.365714 229.595429 0.219429 459.190857 0.365714 688.859429a71.68 71.68 0 0 0 4.754286 23.186285c9.728 26.843429 28.672 39.570286 55.515428 39.570286h308.370286c12.507429 0 15.579429 3.218286 15.725714 16.749714v36.352c0 14.555429-1.243429 16.237714-15.36 16.310858H268.288c-9.874286 0-13.824 4.169143-13.824 14.409142v36.352c-0.219429 14.994286-0.073143 15.067429 13.677714 15.067429l484.205715-0.073143c3.949714 0 7.972571-0.365714 13.092571-0.658286v-48.128c0.146286-15.067429-1.243429-16.749714-15.725714-16.749714-33.060571 0-66.194286-0.073143-99.401143 0.073143-7.606857 0-12.8-1.389714-12.288-11.995429 0.804571-14.336 0.146286-28.818286 0.219428-43.227428 0.073143-14.043429 0.438857-14.409143 13.385143-14.409143h157.330286c53.686857 0 107.446857 0.365714 161.060571-0.731429 8.704-0.146286 17.773714-6.070857 25.819429-10.678857 8.777143-4.900571 12.434286-15.725714 18.724571-22.674285 8.923429-9.874286 8.923429-19.748571 8.923429-30.939429 0-228.425143-0.219429-456.777143 0.585143-685.129143 0.073143-17.554286-7.021714-29.330286-15.652572-41.106286z m-268.8 516.388572L660.041143 697.051429 512.073143 542.646857 364.105143 697.124571 284.525714 613.961143l147.894857-154.477714-147.894857-154.550858 79.579429-83.163428L512.073143 376.246857l147.968-154.477714 79.579428 83.236571-147.894857 154.404572 147.894857 154.550857z" p-id="3394" fill="#d4237a"></path></svg>