<svg class="icon" viewBox="0 0 1024 1024" xmlns="http://www.w3.org/2000/svg" width="128" height="128"><path d="M832 403.499a21.333 21.333 0 0021.333-21.334V276.736a106.24 106.24 0 00-106.197-106.07H276.864a106.24 106.24 0 00-106.197 106.07v342.528a106.24 106.24 0 00106.197 106.07h470.272a106.24 106.24 0 00106.197-106.07V512a21.333 21.333 0 00-42.666 0v107.264a63.573 63.573 0 01-63.531 63.403H276.864a63.573 63.573 0 01-63.53-63.403V276.736a63.573 63.573 0 0163.53-63.403h470.272a63.573 63.573 0 0163.53 63.403v105.43A21.333 21.333 0 00832 403.498m-39.125 407.168h-560a21.333 21.333 0 000 42.666h560a21.333 21.333 0 000-42.666" /></svg>