<svg class="icon" viewBox="0 0 1024 1024" xmlns="http://www.w3.org/2000/svg" width="128" height="128"><path d="M-320.333 501c18 15 57 37 101 1a22 22 0 0127-1l20 14a22 22 0 019 15c3 23 14 79 47 92a22 22 0 0114 21v24a22 22 0 01-13 20c-20 9-55 34-49 83a22 22 0 01-10 22l-22 14a22 22 0 01-27-2c-17-15-53-36-98 1a22 22 0 01-26 2l-18-11a22 22 0 01-11-22c3-24 2-72-52-93a22 22 0 01-14-21v-15a22 22 0 0114-21c23-10 64-36 53-93a22 22 0 0111-24l16-9a22 22 0 0128 3zM-1408 755h-469a26 26 0 01-26-26V238a26 26 0 0126-26h665a26 26 0 0126 26v487a31 31 0 01-31 31zm2134 49a55 55 0 01-29-8l-20-12a55 55 0 01-26-54c4-33-8-56-37-68a55 55 0 01-34-51v-16a55 55 0 0133-51c48-20 41-55 39-66a55 55 0 0128-59l18-9a55 55 0 0160 6c36 29 62 8 70 1a55 55 0 0166-2l21 15a55 55 0 0123 38c5 38 18 69 31 74a55 55 0 0136 52v26a55 55 0 01-31 50c-26 13-38 32-36 58a55 55 0 01-25 53l-23 15a55 55 0 01-66-5c-21-19-41-18-65 2a55 55 0 01-33 11zm-12-71l12 7c45-35 96-36 138-1l15-10c-4-49 20-90 67-114v-16c-45-21-61-82-66-119l-15-10c-44 33-96 32-140-2l-9 5c9 55-18 103-72 128v7c49 21 75 68 69 126zm7-269z"/><path d="M795 518a85 85 0 1085 85 85 85 0 00-85-85zm0 108a23 23 0 1123-23 23 23 0 01-23 24z"/><path d="M634 865H528V744h52a31 31 0 000-62H78v-80h454a31 31 0 000-62H78V159h710v202a31 31 0 0062 0V156a59 59 0 00-59-59H75a59 59 0 00-59 59v530a59 59 0 0059 59h263v120H232a31 31 0 000 62h402a31 31 0 000-62zm-168 0h-66V744h66z"/></svg>