<svg class="icon" viewBox="0 0 1024 1024" xmlns="http://www.w3.org/2000/svg" width="200" height="200"><path d="M936.346 43.049H87.696c-44.647 0-80.856 38.01-80.856 84.828v532.03c0 46.899 36.209 84.869 80.855 84.869h288.031v97.976H318.67v64.266H244.94v82.78h534.118v-82.78h-73.646v-64.266h-57.098v-97.976h288.03c44.647 0 80.856-38.011 80.856-84.87V127.878c0-46.817-36.209-84.828-80.855-84.828zm-7.537 615.834H95.232v-529.94h833.577v529.94z" fill="#2B3B95"/><path d="M715.366 268.083l-54.394-54.395-198.165 198.165-99.697-99.738-54.394 54.395 154.91 154.91 54.354-54.353-.819-.86z" fill="#2B3B95"/></svg>