<svg class="icon" viewBox="0 0 1024 1024" xmlns="http://www.w3.org/2000/svg" width="200" height="200"><path d="M932.905 68.116H84.255c-44.647 0-80.855 38.011-80.855 84.829v532.03c0 46.898 36.208 84.868 80.855 84.868h288.03v97.977h-57.057v64.266H241.5v82.78h534.078v-82.78h-73.646V867.82h-57.099v-97.977h288.031c44.646 0 80.855-38.01 80.855-84.869v-532.03c.041-46.817-36.168-84.828-80.814-84.828zm-7.537 615.834H91.791v-529.9h833.577v529.9z" fill="#2B3B95"/><path d="M670.802 282.583l-53.617-54.313L508.6 338.33 399.974 228.27l-53.616 54.313 108.626 110.06-108.626 110.1 53.616 54.313L508.6 446.996l108.585 110.06 53.617-54.313-108.626-110.1z" fill="#2B3B95"/></svg>