<svg t="1571291636903" class="icon" viewBox="0 0 1024 1024" version="1.1" xmlns="http://www.w3.org/2000/svg" p-id="21532" width="128" height="128"><path d="M453.399 598.589c10.8-9.3 11.6-21.7 2.3-37.2-15.5-23.2-44.9-62.8-88.2-118.6v-11.6h65c12.4 0 18.6-7 18.6-20.9 0-12.4-6.2-18.6-18.6-18.6h-65v-97.6c26.3-6.2 45.6-10.8 58-13.9 12.4-4.6 17.8-13.9 16.3-27.9-4.7-12.4-13.9-17.1-27.9-14-44.9 10.9-95.2 17.8-150.9 20.9-15.5 1.6-23.2 9.3-23.2 23.2 1.5 13.9 10 20.9 25.5 20.9 7.7 0 17.8-0.8 30.2-2.3 15.5 0 25.5-0.8 30.2-2.3v93h-83.6c-13.9 0-21.7 6.2-23.2 18.6 0 13.9 7 20.9 20.9 20.9h74.3c-20.1 52.7-49.6 106.9-88.2 162.7-9.3 12.4-8.5 24 2.3 34.9 10.8 7.8 22.4 5.4 34.8-7 29.4-44.9 50.3-82.9 62.7-113.9v253.4c1.5 10.8 8.5 16.3 20.9 16.3 13.9-1.6 20.9-7.8 20.9-18.6v-246.4c15.5 20.2 32.5 45.7 51.1 76.7 10.8 14 22.4 17.1 34.8 9.3z m27.9-306.8v425.4h-39.5c-13.9 0-22.5 7-25.5 20.9 1.5 13.9 9.3 20.9 23.2 20.9h339c12.4 0 19.3-7 20.9-20.9-1.6-13.9-8.5-20.9-20.9-20.9h-37.1v-430c0-29.4-14.7-44.2-44.1-44.2h-165c-37.1-3.1-54.2 13.2-51 48.8z m215.9 16.3v93h-171.8v-93c-1.6-15.5 4.6-22.4 18.6-20.9h130c17-1.6 24.7 5.4 23.2 20.9z m0 134.8v111.6h-171.8v-111.6h171.8z m0 153.4v120.9h-171.8v-120.9h171.8z m-185.2 427.7c-69.1 0-136.2-13.5-199.3-40.3-61-25.8-115.7-62.7-162.7-109.7-47-47-83.9-101.8-109.7-162.7-26.7-63.1-40.3-130.2-40.3-199.3 0-69.1 13.5-136.2 40.3-199.3 25.8-61 62.7-115.7 109.7-162.7 47-47 101.8-83.9 162.7-109.7 63.1-26.7 130.2-40.2 199.3-40.2 69.1 0 136.2 13.5 199.3 40.2 61 25.8 115.7 62.7 162.7 109.7 47 47 83.9 101.8 109.7 162.7 26.7 63.1 40.3 130.2 40.3 199.3 0 92.7-25.1 183.6-72.5 262.7-8.6 14.4-27.3 19.1-41.7 10.5-14.4-8.7-19.1-27.4-10.4-41.8 41.7-69.7 63.8-149.7 63.8-231.4 0-60.9-11.9-120-35.4-175.6-22.7-53.7-55.2-102-96.7-143.4-41.4-41.4-89.7-74-143.4-96.7-55.7-23.4-114.8-35.4-175.7-35.4-60.9 0-120 11.9-175.6 35.4-53.7 22.7-102 55.2-143.4 96.7-41.4 41.4-74 89.7-96.7 143.4-23.5 55.6-35.4 114.7-35.4 175.6 0 60.9 11.9 119.9 35.4 175.5 22.7 53.7 55.2 102 96.7 143.4 41.4 41.4 89.7 74 143.4 96.7 55.6 23.5 114.7 35.4 175.6 35.4 90.9 0 178.6-26.9 253.4-77.8 13.9-9.5 32.8-5.8 42.3 8.1 9.4 13.9 5.8 32.9-8.1 42.3-85 57.9-184.4 88.4-287.6 88.4z" p-id="21533" ></path></svg>