<svg class="icon" viewBox="0 0 1024 1024" xmlns="http://www.w3.org/2000/svg" width="128" height="128"><path d="M821.333 256c0-17.673 14.327-32 32-32 17.673 0 32 14.327 32 32v565.333c0 64.802-52.532 117.334-117.333 117.334H256c-64.801 0-117.333-52.532-117.333-117.334V202.667c0-64.802 52.532-117.334 117.333-117.334h597.333c17.673 0 32 14.327 32 32 0 17.673-14.327 32-32 32H256c-29.455 0-53.333 23.878-53.333 53.334v618.666c0 29.456 23.878 53.334 53.333 53.334h512c29.455 0 53.333-23.878 53.333-53.334V256zm-480 181.333c-17.673 0-32-14.327-32-32 0-17.673 14.327-32 32-32h341.334c17.673 0 32 14.327 32 32 0 17.673-14.327 32-32 32H341.333zm0 170.667c-17.673 0-32-14.327-32-32 0-17.673 14.327-32 32-32h213.334c17.673 0 32 14.327 32 32 0 17.673-14.327 32-32 32H341.333z" /></svg>