<svg t="1571281883742" class="icon" viewBox="0 0 1024 1024" version="1.1" xmlns="http://www.w3.org/2000/svg" p-id="9339" width="200" height="200"><path d="M937.6 361.6L559.36 576a93.44 93.44 0 0 1-90.24 0l-384-213.12a41.6 41.6 0 0 1-16.64-58.88 44.16 44.16 0 0 1 16.64-15.36l377.6-213.12a93.44 93.44 0 0 1 90.24 0l384 213.12a41.6 41.6 0 0 1 16.64 58.88 44.16 44.16 0 0 1-16 14.08z" p-id="9340" ></path><path d="M938.24 468.48L896 448l-40.96 22.4 64 33.92a3.84 3.84 0 0 1 0 5.12L540.16 723.2a50.56 50.56 0 0 1-49.28 0L110.72 512a3.84 3.84 0 0 1 0-5.12l64-34.56L128 448l-40.96 23.04a41.6 41.6 0 0 0-16.64 58.88 44.16 44.16 0 0 0 16.64 15.36l384 213.76a93.44 93.44 0 0 0 90.24 0L940.8 544a41.6 41.6 0 0 0 16.64-58.88 44.16 44.16 0 0 0-19.2-16.64z" p-id="9341" ></path><path d="M938.24 659.84L896 640l-40.96 22.4 64 33.92a3.84 3.84 0 0 1 0 5.12l-377.6 213.12a50.56 50.56 0 0 1-49.28 0L110.72 704a3.84 3.84 0 0 1 0-5.12l64-34.56L128 640l-40.96 23.04a41.6 41.6 0 0 0-16.64 58.88 44.16 44.16 0 0 0 16.64 15.36l384 213.76a93.44 93.44 0 0 0 90.24 0l378.88-213.12a41.6 41.6 0 0 0 16.64-58.88 44.16 44.16 0 0 0-16.64-15.36z" p-id="9342" ></path></svg>