<svg t="1571069976808" class="icon" viewBox="0 0 1024 1024" version="1.1" xmlns="http://www.w3.org/2000/svg" p-id="3847" width="128" height="128"><path d="M380.502613 447.829333h213.333334a21.333333 21.333333 0 0 0 0-42.666666h-213.333334a21.333333 21.333333 0 0 0 0 42.666666M380.502613 575.829333h213.333334a21.333333 21.333333 0 0 0 0-42.666666h-213.333334a21.333333 21.333333 0 0 0 0 42.666666M382.294613 703.829333h213.333334a21.333333 21.333333 0 0 0 0-42.666666h-213.333334a21.333333 21.333333 0 0 0 0 42.666666" p-id="3848" fill="#ffffff"></path><path d="M846.635947 452.181333L507.179947 133.589333a21.205333 21.205333 0 0 0-16.554667-5.504 21.290667 21.290667 0 0 0-16.426667 5.504L134.742613 452.181333a21.333333 21.333333 0 0 0 29.226667 31.104l9.6-8.96v279.765334A100.138667 100.138667 0 0 0 273.750613 853.973333h433.92a100.138667 100.138667 0 0 0 100.181334-99.882666v-69.802667a21.333333 21.333333 0 1 0-42.666667 0v69.802667c0 31.530667-25.813333 57.216-57.557333 57.216H273.750613a57.429333 57.429333 0 0 1-57.514666-57.216V434.261333L490.710613 176.64l274.474667 257.664v124.458667a21.333333 21.333333 0 0 0 42.666667 0V474.325333l9.557333 8.96a21.333333 21.333333 0 1 0 29.226667-31.104" p-id="3849" fill="#ffffff"></path></svg>